<svg width="240" height="128" viewBox="0 0 240 128" fill="none" xmlns="http://www.w3.org/2000/svg">
<rect x="0.5" y="0.5" width="239" height="127" rx="3.5" stroke="#676879"/>
<path d="M122 64L119 62V66L122 64Z" stroke="#676879" stroke-linecap="round" stroke-linejoin="round"/>
<path d="M113.5 64.0001C113.5 65.8694 113.692 66.9657 113.838 67.5294C113.877 67.6828 113.951 67.8248 114.055 67.9437C114.16 68.0627 114.291 68.1553 114.438 68.2138C116.533 69.0219 120 69.0001 120 69.0001C120 69.0001 123.467 69.0219 125.562 68.2138C125.71 68.1556 125.841 68.0632 125.946 67.9442C126.051 67.8252 126.125 67.683 126.164 67.5294C126.311 66.9669 126.502 65.8694 126.502 64.0001C126.502 62.1307 126.311 61.0344 126.164 60.4707C126.126 60.3165 126.051 60.1737 125.947 60.0542C125.842 59.9346 125.71 59.8417 125.562 59.7832C123.467 58.9782 120 59.0001 120 59.0001C120 59.0001 116.533 58.9782 114.438 59.7863C114.29 59.8448 114.158 59.9377 114.053 60.0573C113.949 60.1769 113.874 60.3196 113.836 60.4738C113.692 61.0338 113.5 62.1307 113.5 64.0001Z" stroke="#676879" stroke-linecap="round" stroke-linejoin="round"/>
</svg>
