<svg width="164" height="39" viewBox="0 0 164 39" fill="none" xmlns="http://www.w3.org/2000/svg">
<path d="M13.9978 15.919C13.9552 18.4134 15.0389 20.8016 16.9877 22.5562C16.8135 22.6641 16.6394 22.7651 16.4633 22.8556C16.4574 22.8591 16.4497 22.8626 16.4439 22.866C16.3065 22.9374 16.1459 23.0018 15.9698 23.0558C14.41 23.5449 11.4994 23.3621 9.62996 22.0497C9.54481 21.9922 9.46353 21.9296 9.38419 21.8669L9.23711 21.7503C7.28834 17.9208 7.67151 12.2357 10.1776 8.83787C10.7776 8.34177 11.8961 7.59676 13.2508 7.53409C13.3282 7.52887 13.4037 7.52887 13.4811 7.53409C13.4482 7.52887 13.4153 7.52713 13.3804 7.52539C13.4501 7.52539 13.5236 7.52887 13.5914 7.53409H13.5972C13.5972 7.53409 13.6165 7.53583 13.6262 7.53583C13.6514 7.53583 13.6765 7.53758 13.7017 7.54106C13.7152 7.54106 13.7307 7.5428 13.7443 7.54454C13.9378 7.55846 14.1313 7.58806 14.321 7.63505C14.3248 7.63505 14.3268 7.63679 14.3306 7.63679C14.3384 7.63854 14.3461 7.64028 14.3539 7.64202C14.3616 7.64376 14.3674 7.6455 14.3751 7.64724C14.6016 7.69598 14.8086 7.76386 14.9964 7.8422C15.006 7.84742 15.0176 7.8509 15.0273 7.85612C15.0718 7.87527 15.1183 7.89616 15.1628 7.91879H15.1647C15.1647 7.91879 15.1802 7.92575 15.186 7.92923C15.2305 7.95012 15.2731 7.97101 15.3157 7.99363C15.3273 7.99886 15.337 8.00582 15.3486 8.01104C15.3989 8.03715 15.4473 8.065 15.4976 8.09459C15.5092 8.09982 15.5189 8.10678 15.5285 8.112C15.575 8.13985 15.6195 8.1677 15.664 8.19555C15.7259 8.23385 15.7859 8.27388 15.8479 8.31566C15.9756 8.40095 16.1033 8.49669 16.231 8.59939C16.3588 8.70035 16.4845 8.81002 16.6103 8.9249C16.8058 9.10419 16.9896 9.28522 17.1657 9.46799C15.186 11.1373 14.0365 13.4594 13.9978 15.919Z" fill="#453CB6"/>
<path d="M38.9208 21.1828C38.3615 21.7085 37.6571 22.0375 36.914 22.1924C35.6561 22.4588 34.2821 22.229 33.2816 21.6232C32.999 21.4527 32.73 21.2507 32.4707 21.021C33.7557 19.1358 34.315 16.5961 33.9028 14.4638C33.957 14.4307 34.0111 14.3994 34.0673 14.3698C35.7045 13.4542 37.5526 13.3184 39.8497 14.4882C40.229 16.5996 39.8749 19.1497 38.9208 21.1828Z" fill="#453CB6"/>
<path d="M25.0792 23.2665C24.4947 22.5563 23.9219 21.7399 23.3742 20.8034C22.8769 19.9505 22.4569 19.1376 22.0815 18.3542C20.7423 20.0183 19.3586 21.5484 17.8937 22.5998C17.5124 22.8748 17.1273 23.115 16.7345 23.3187C16.7228 23.3239 16.7132 23.3291 16.7016 23.3343C16.7016 23.3361 16.6996 23.3361 16.6977 23.3361L16.6667 23.3448C16.5158 23.3813 16.3629 23.451 16.2061 23.538C15.941 23.625 15.6507 23.6929 15.3392 23.7417C15.0547 23.7852 14.7528 23.8148 14.4393 23.8252C14.1045 23.8391 13.7581 23.8322 13.4039 23.8043C12.1596 23.7138 10.8456 23.3761 9.77344 22.7756C9.78311 22.7965 9.79279 22.8156 9.8044 22.8365C9.87794 22.981 9.96115 23.1307 10.054 23.2856C11.3332 25.4058 14.4238 28.2657 18.242 27.9802C21.1352 27.7644 23.3549 25.9019 25.3307 23.5624C25.2456 23.4649 25.1624 23.3674 25.0792 23.2665Z" fill="#594DED"/>
<path d="M39.7814 13.5152C39.4196 11.4629 38.2894 9.8963 36.5399 9.05206C34.6666 8.15039 32.2786 8.22524 30.3085 9.2505C29.2383 9.80752 28.1875 10.7701 27.1309 11.9555C27.1521 11.9956 27.1715 12.0373 27.1928 12.0774C27.2141 12.1192 27.2354 12.1609 27.2547 12.2027C27.5972 12.8798 27.9243 13.5604 28.2436 14.2254C28.7971 15.376 29.339 16.5039 29.9079 17.5327C30.9433 16.2341 32.0038 15.0975 33.1862 14.2967C33.2113 14.2793 33.2365 14.2637 33.2617 14.248C33.3468 14.1888 33.4339 14.1349 33.519 14.0844C33.6739 13.9886 33.8306 13.9016 33.9874 13.8215C35.5685 13.0104 37.2211 12.9164 38.9938 13.5396C39.226 13.6214 39.4641 13.7154 39.7002 13.825C39.7118 13.8285 39.7214 13.8337 39.7331 13.8389C39.7679 13.8529 39.8027 13.8703 39.8376 13.8859C39.8221 13.7606 39.8027 13.637 39.7814 13.5152Z" fill="#594DED"/>
<path d="M38.3201 22.2446L38.3162 22.2464C37.9292 22.4466 37.5034 22.6032 37.0544 22.7059H37.0525C36.1991 22.9044 35.2605 22.9096 34.3335 22.652C34.1342 22.5963 33.9349 22.5301 33.7375 22.4483H33.7336C33.5033 22.3543 33.2749 22.2429 33.0505 22.1124H33.0485L33.0447 22.1106H33.0427C33.0137 22.0932 32.9885 22.0775 32.9595 22.0584C32.7757 21.947 32.5976 21.8251 32.4254 21.6894C32.3306 21.6197 32.2396 21.5449 32.1486 21.4666C32.077 21.4074 32.0074 21.3447 31.9396 21.2803C31.87 21.2176 31.8022 21.1515 31.7364 21.0854C31.0378 20.3908 30.4166 19.5205 29.8322 18.5422C29.7799 18.4569 29.7296 18.3699 29.6793 18.2829C29.629 18.1958 29.5787 18.107 29.5283 18.0183C28.9033 16.9095 28.315 15.6858 27.7131 14.4342C27.3899 13.7623 27.0648 13.0852 26.73 12.4185C26.6855 12.3297 26.641 12.2409 26.5945 12.1522C26.55 12.0634 26.5055 11.9729 26.4571 11.8841C24.6961 8.45147 22.6312 5.34783 19.2194 4.31212C15.2232 3.09886 12.3416 5.68552 10.8515 7.56372C10.7741 7.66294 10.6986 7.75693 10.6309 7.85093C10.7315 7.79001 10.8399 7.72908 10.9521 7.67164C10.9676 7.66294 10.9831 7.65423 11.0005 7.64727C11.016 7.63857 11.0315 7.62986 11.0489 7.6229C11.0624 7.61594 11.074 7.61072 11.0876 7.60375H11.0895C11.7378 7.27999 12.5429 7.01018 13.4447 7.01018C14.2246 7.01018 15.078 7.21036 15.9566 7.74649C16.0147 7.7813 16.0747 7.8196 16.1327 7.85789C16.1966 7.89967 16.2604 7.94145 16.3224 7.9867C16.3553 8.00759 16.3882 8.03196 16.4211 8.05807C16.4772 8.09985 16.5352 8.14337 16.5914 8.18862C16.6262 8.21473 16.6591 8.24084 16.692 8.26869C16.7249 8.29655 16.7578 8.3244 16.7907 8.35225L16.8081 8.36791C16.841 8.39576 16.8739 8.42362 16.9068 8.45495C16.9455 8.48628 16.9842 8.52283 17.0229 8.55765C17.0229 8.55765 17.0242 8.55881 17.0268 8.56113H17.0287C17.2842 8.79786 17.5222 9.0346 17.7467 9.27481C17.7486 9.27655 17.7506 9.28003 17.7506 9.28003C17.7641 9.29222 17.7757 9.30614 17.7873 9.32007C17.8512 9.38621 17.9112 9.45236 17.9712 9.52025C19.6393 11.3828 20.5083 13.3846 21.4914 15.6492C21.7255 16.1871 21.9616 16.7319 22.2151 17.2872C22.2577 17.3829 22.3003 17.4787 22.3448 17.5744C22.3874 17.6684 22.4319 17.7606 22.4744 17.8564C22.8828 18.7215 23.3376 19.6162 23.8891 20.5597C24.4464 21.5118 25.0135 22.3178 25.5747 22.9984C25.6114 23.0436 25.6502 23.0889 25.6869 23.1324C25.7489 23.2055 25.8108 23.2769 25.8727 23.3465C25.9346 23.4179 25.9966 23.4892 26.0604 23.5571C28.762 26.5128 31.2468 26.6973 31.8177 26.6973C35.5798 26.6973 37.5092 24.2395 38.471 22.4692C38.5523 22.3178 38.6278 22.1698 38.6975 22.0305C38.5775 22.1071 38.4497 22.1785 38.3201 22.2446Z" fill="#594DED"/>
<path d="M62.5039 11.8541C61.3698 10.2242 59.5341 9.42029 57.3949 9.42029C55.6501 9.42029 54.0997 9.94286 52.9492 10.9496C52.9492 12.2341 52.9619 13.8073 52.9801 15.4518C53.5326 14.0832 54.6686 13.4309 56.0954 13.4309C58.0165 13.4309 59.1088 14.6186 59.1088 17.2022V25.6382H63.7181V17.6188C63.7181 17.4324 63.7253 17.2515 63.738 17.078V17.0615C63.7053 14.8525 63.2928 13.1093 62.5039 11.8541Z" fill="black"/>
<path d="M68.3575 9.42029C66.1819 9.42029 64.2754 10.2316 62.9922 11.6056C63.592 12.5776 63.9827 13.8055 64.1627 15.2818C64.7425 14.0302 65.8493 13.4309 67.2343 13.4309C69.0954 13.4309 70.2477 14.6186 70.2477 17.2022V25.6382H74.857V16.4896C74.857 11.6184 72.138 9.42029 68.3575 9.42029Z" fill="black"/>
<path d="M52.4057 11.496L52.402 11.4996V9.65784H48V25.6383H52.6002C52.5547 23.3196 52.4148 16.0018 52.4057 11.496Z" fill="black"/>
<path d="M86.1444 9.42029C81.0917 9.42029 77.3984 12.8371 77.3984 17.648C77.3984 22.459 81.0917 25.8758 86.1444 25.8758C91.1971 25.8758 94.8594 22.4608 94.8594 17.648C94.8594 12.8353 91.1971 9.42029 86.1444 9.42029ZM86.1444 22.0753C83.8398 22.0753 82.0658 20.4107 82.0658 17.648C82.0658 14.8854 83.8398 13.2226 86.1444 13.2226C88.449 13.2226 90.192 14.8854 90.192 17.648C90.192 20.4107 88.449 22.0753 86.1444 22.0753Z" fill="black"/>
<path d="M104.993 22.0753C102.66 22.0753 100.828 20.4399 100.828 17.648C100.828 14.8561 102.66 13.2226 104.993 13.2226C106.442 13.2226 107.712 13.906 108.568 15.4207L112.143 13.4894C110.991 10.8765 108.363 9.42029 105.024 9.42029C99.8534 9.42029 96.1602 12.8371 96.1602 17.648C96.1602 22.459 99.8534 25.8758 105.024 25.8758C108.363 25.8758 110.991 24.3921 112.143 21.8359L108.568 19.8772C107.712 21.4211 106.442 22.0753 104.993 22.0753Z" fill="black"/>
<path d="M117.493 17.648C117.493 14.8854 119.266 13.2226 121.57 13.2226C123.16 13.2226 124.498 14.0339 125.169 15.4591C125.156 14.7757 125.123 14.0503 125.091 13.303C125.056 12.4954 125.02 11.6695 125.003 10.8309C123.897 9.87891 122.443 9.42029 120.772 9.42029C117.473 9.42029 114.734 11.1506 113.509 14.0576C113.068 15.1083 112.824 16.3142 112.824 17.648C112.824 17.7705 112.828 17.8929 112.833 18.0135H117.506C117.499 17.8929 117.493 17.7723 117.493 17.648Z" fill="black"/>
<path d="M125.538 9.65784C125.529 10.8912 125.582 12.1044 125.635 13.2793C125.715 15.0772 125.789 16.7509 125.6 18.0811V18.0902C125.422 20.588 123.721 22.0753 121.569 22.0753C119.417 22.0753 117.654 20.5569 117.505 18.0135H112.832C112.872 19.203 113.108 20.2846 113.508 21.2384C114.733 24.1473 117.472 25.8758 120.771 25.8758C122.899 25.8758 124.582 25.1924 125.735 23.7965V25.6383H130.139V9.65784H125.538Z" fill="black"/>
<path d="M138.203 11.7664V9.65782H133.801V25.6382H138.41V18.0939C138.41 15.0352 140.095 13.6392 142.636 13.6392C142.99 13.6392 143.286 13.6685 143.67 13.6977V9.42029C141.218 9.42029 139.326 10.2224 138.203 11.7664Z" fill="black"/>
<path d="M154.604 21.5984C154.071 21.9858 153.392 22.1941 152.712 22.1941C151.472 22.1941 150.762 21.4504 150.762 20.0837V13.579H154.693V10.0142H150.762V6.12415H146.152V20.144C146.152 23.9463 148.31 25.8758 152.092 25.8758C153.481 25.8758 154.869 25.5506 155.814 24.8672L154.604 21.5984Z" fill="black"/>
</svg>
