<svg width="240" height="127" viewBox="0 0 240 127" fill="none" xmlns="http://www.w3.org/2000/svg">
<rect x="0.5" y="0.5" width="239" height="119" rx="3.5" stroke="#676879"/>
<rect x="78.5" y="16.5" width="83" height="11" rx="3.5" stroke="#676879"/>
<rect x="78.5" y="36.5" width="83" height="5" rx="2.5" stroke="#676879"/>
<path d="M58.4481 65.0316L59.6752 67.5097C59.8937 67.9509 60.3147 68.2568 60.8018 68.3282L63.5378 68.7295C63.9473 68.7896 64.1107 69.2926 63.8148 69.5818L61.8371 71.5147C61.4851 71.8588 61.3242 72.3537 61.4068 72.839L61.8706 75.5652C61.9401 75.9731 61.5122 76.284 61.1456 76.0919L58.6962 74.8084C58.2602 74.5799 57.7398 74.5799 57.3038 74.8084L54.8544 76.0919C54.4878 76.284 54.0599 75.9731 54.1294 75.5652L54.5932 72.839C54.6758 72.3537 54.5149 71.8588 54.1629 71.5147L52.1852 69.5818C51.8893 69.2926 52.0527 68.7896 52.4622 68.7295L55.1982 68.3282C55.6853 68.2568 56.1063 67.9509 56.3248 67.5097L57.5519 65.0316C57.7356 64.6608 58.2644 64.6608 58.4481 65.0316Z" fill="#F5F6F8" stroke="#676879"/>
<path d="M89.4481 65.0316L90.6752 67.5097C90.8937 67.9509 91.3147 68.2568 91.8018 68.3282L94.5378 68.7295C94.9473 68.7896 95.1107 69.2926 94.8148 69.5818L92.8371 71.5147C92.4851 71.8588 92.3242 72.3537 92.4068 72.839L92.8706 75.5652C92.9401 75.9731 92.5122 76.284 92.1456 76.0919L89.6962 74.8084C89.2602 74.5799 88.7398 74.5799 88.3038 74.8084L85.8544 76.0919C85.4878 76.284 85.0599 75.9731 85.1294 75.5652L85.5932 72.839C85.6758 72.3537 85.5149 71.8588 85.1629 71.5147L83.1852 69.5818C82.8893 69.2926 83.0527 68.7896 83.4622 68.7295L86.1982 68.3282C86.6853 68.2568 87.1063 67.9509 87.3248 67.5097L88.5519 65.0316C88.7356 64.6608 89.2644 64.6608 89.4481 65.0316Z" fill="#F5F6F8" stroke="#676879"/>
<path d="M120.448 65.0316L121.675 67.5097C121.894 67.9509 122.315 68.2568 122.802 68.3282L125.538 68.7295C125.947 68.7896 126.111 69.2926 125.815 69.5818L123.837 71.5147C123.485 71.8588 123.324 72.3537 123.407 72.839L123.871 75.5652C123.94 75.9731 123.512 76.284 123.146 76.0919L120.696 74.8084C120.26 74.5799 119.74 74.5799 119.304 74.8084L116.854 76.0919C116.488 76.284 116.06 75.9731 116.129 75.5652L116.593 72.839C116.676 72.3537 116.515 71.8588 116.163 71.5147L114.185 69.5818C113.889 69.2926 114.053 68.7896 114.462 68.7295L117.198 68.3282C117.685 68.2568 118.106 67.9509 118.325 67.5097L119.552 65.0316C119.736 64.6608 120.264 64.6608 120.448 65.0316Z" fill="#F5F6F8" stroke="#676879"/>
<path d="M151.448 65.0316L152.675 67.5097C152.894 67.9509 153.315 68.2568 153.802 68.3282L156.538 68.7295C156.947 68.7896 157.111 69.2926 156.815 69.5818L154.837 71.5147C154.485 71.8588 154.324 72.3537 154.407 72.839L154.871 75.5652C154.94 75.9731 154.512 76.284 154.146 76.0919L151.696 74.8084C151.26 74.5799 150.74 74.5799 150.304 74.8084L147.854 76.0919C147.488 76.284 147.06 75.9731 147.129 75.5652L147.593 72.839C147.676 72.3537 147.515 71.8588 147.163 71.5147L145.185 69.5818C144.889 69.2926 145.053 68.7896 145.462 68.7295L148.198 68.3282C148.685 68.2568 149.106 67.9509 149.325 67.5097L150.552 65.0316C150.736 64.6608 151.264 64.6608 151.448 65.0316Z" fill="#F5F6F8" stroke="#676879"/>
<path d="M182.448 65.0316L183.675 67.5097C183.894 67.9509 184.315 68.2568 184.802 68.3282L187.538 68.7295C187.947 68.7896 188.111 69.2926 187.815 69.5818L185.837 71.5147C185.485 71.8588 185.324 72.3537 185.407 72.839L185.871 75.5652C185.94 75.9731 185.512 76.284 185.146 76.0919L182.696 74.8084C182.26 74.5799 181.74 74.5799 181.304 74.8084L178.854 76.0919C178.488 76.284 178.06 75.9731 178.129 75.5652L178.593 72.839C178.676 72.3537 178.515 71.8588 178.163 71.5147L176.185 69.5818C175.889 69.2926 176.053 68.7896 176.462 68.7295L179.198 68.3282C179.685 68.2568 180.106 67.9509 180.325 67.5097L181.552 65.0316C181.736 64.6608 182.264 64.6608 182.448 65.0316Z" fill="#F5F6F8" stroke="#676879"/>
<rect x="46.5" y="83.5" width="23" height="43" rx="3.5" fill="#F5F6F8" stroke="#676879"/>
<rect x="77.5" y="83.5" width="23" height="43" rx="3.5" fill="#F5F6F8" stroke="#676879"/>
<rect x="108.5" y="83.5" width="23" height="43" rx="3.5" fill="#F5F6F8" stroke="#676879"/>
<rect x="139.5" y="83.5" width="23" height="43" rx="3.5" fill="#F5F6F8" stroke="#676879"/>
<rect x="170.5" y="83.5" width="23" height="43" rx="3.5" fill="#F5F6F8" stroke="#676879"/>
</svg>
