<svg width="210" height="128" viewBox="0 0 210 128" fill="none" xmlns="http://www.w3.org/2000/svg">
<rect x="0.5" y="0.5" width="96" height="119" rx="3.5" stroke="#676879"/>
<rect x="16.5" y="16.5" width="64" height="11" rx="3.5" stroke="#676879"/>
<rect x="16.5" y="32.5" width="64" height="5" rx="2.5" stroke="#676879"/>
<path d="M49.4481 68.0316L54.209 77.6459C54.4274 78.0871 54.8485 78.393 55.3355 78.4644L65.9505 80.0213C66.3599 80.0814 66.5234 80.5844 66.2274 80.8736L58.5549 88.3725C58.2028 88.7166 58.042 89.2115 58.1246 89.6968L59.9241 100.273C59.9935 100.681 59.5656 100.992 59.1991 100.8L49.6962 95.8204C49.2602 95.5919 48.7398 95.5919 48.3038 95.8204L38.8009 100.8C38.4344 100.992 38.0065 100.681 38.0759 100.273L39.8754 89.6968C39.958 89.2115 39.7972 88.7166 39.4451 88.3725L31.7726 80.8736C31.4766 80.5844 31.6401 80.0814 32.0495 80.0213L42.6645 78.4644C43.1515 78.393 43.5726 78.0871 43.791 77.6459L48.5519 68.0316C48.7356 67.6608 49.2644 67.6608 49.4481 68.0316Z" fill="#F5F6F8" stroke="#676879"/>
<rect x="17.5" y="110.5" width="63" height="16" rx="3.5" fill="#F5F6F8" stroke="#676879"/>
<rect x="113.5" y="0.5" width="96" height="119" rx="3.5" stroke="#676879"/>
<rect x="129.5" y="16.5" width="64" height="11" rx="3.5" stroke="#676879"/>
<rect x="129.5" y="32.5" width="64" height="5" rx="2.5" stroke="#676879"/>
<path d="M162.448 68.0316L167.209 77.6459C167.427 78.0871 167.848 78.393 168.336 78.4644L178.951 80.0213C179.36 80.0814 179.523 80.5844 179.227 80.8736L171.555 88.3725C171.203 88.7166 171.042 89.2115 171.125 89.6968L172.924 100.273C172.993 100.681 172.566 100.992 172.199 100.8L162.696 95.8204C162.26 95.5919 161.74 95.5919 161.304 95.8204L151.801 100.8C151.434 100.992 151.007 100.681 151.076 100.273L152.875 89.6968C152.958 89.2115 152.797 88.7166 152.445 88.3725L144.773 80.8736C144.477 80.5844 144.64 80.0814 145.049 80.0213L155.664 78.4644C156.152 78.393 156.573 78.0871 156.791 77.6459L161.552 68.0316C161.736 67.6608 162.264 67.6608 162.448 68.0316Z" fill="#F5F6F8" stroke="#676879"/>
<rect x="130.5" y="110.5" width="63" height="17" rx="3.5" fill="#F5F6F8" stroke="#676879"/>
</svg>
