<svg width="40" height="30" viewBox="0 0 40 30" fill="none" xmlns="http://www.w3.org/2000/svg">
<path d="M7.49722 14.8987C7.444 18.0167 8.79866 21.002 11.2346 23.1953C11.0169 23.3302 10.7992 23.4564 10.5791 23.5695C10.5718 23.5739 10.5621 23.5782 10.5549 23.5826C10.3831 23.6718 10.1823 23.7523 9.96222 23.8197C8.01247 24.4311 4.37424 24.2027 2.03746 22.5621C1.93102 22.4903 1.82942 22.4119 1.73024 22.3336L1.54639 22.1878C-0.889577 17.401 -0.410608 10.2946 2.72204 6.04733C3.47194 5.42721 4.87015 4.49595 6.56347 4.41762C6.66023 4.41109 6.75457 4.41109 6.85134 4.41762C6.81021 4.41109 6.76909 4.40891 6.72555 4.40674C6.81263 4.40674 6.90455 4.41109 6.98922 4.41762H6.99648C6.99648 4.41762 7.02067 4.41979 7.03276 4.41979C7.06421 4.41979 7.09566 4.42197 7.12711 4.42632C7.14404 4.42632 7.16339 4.4285 7.18033 4.43067C7.42223 4.44808 7.66413 4.48507 7.9012 4.54382C7.90604 4.54382 7.90846 4.54599 7.91329 4.54599C7.92297 4.54817 7.93265 4.55034 7.94232 4.55252C7.952 4.5547 7.95925 4.55687 7.96893 4.55905C8.25196 4.61997 8.5108 4.70483 8.74544 4.80274C8.75754 4.80927 8.77205 4.81362 8.78415 4.82015C8.83978 4.84409 8.89784 4.8702 8.95348 4.89848H8.9559C8.9559 4.89848 8.97525 4.90719 8.98251 4.91154C9.03815 4.93765 9.09136 4.96376 9.14458 4.99204C9.1591 4.99857 9.17119 5.00727 9.18571 5.0138C9.2486 5.04644 9.30908 5.08125 9.37197 5.11824C9.38649 5.12477 9.39858 5.13347 9.41068 5.14C9.46873 5.17482 9.52437 5.20963 9.58001 5.24444C9.65742 5.29231 9.73241 5.34236 9.80982 5.39458C9.96947 5.50119 10.1291 5.62087 10.2888 5.74924C10.4484 5.87544 10.6057 6.01252 10.7629 6.15613C11.0072 6.38024 11.237 6.60653 11.4572 6.83499C8.98251 8.92164 7.5456 11.8242 7.49722 14.8987Z" fill="#453CB6"/>
<path d="M38.652 21.4784C37.9529 22.1355 37.0724 22.5468 36.1435 22.7404C34.5711 23.0733 32.8536 22.7861 31.6029 22.0289C31.2498 21.8157 30.9135 21.5633 30.5894 21.2761C32.1956 18.9196 32.8947 15.7451 32.3794 13.0796C32.4472 13.0383 32.5149 12.9991 32.5851 12.9621C34.6316 11.8176 36.9417 11.6479 39.8131 13.1101C40.2873 15.7494 39.8446 18.937 38.652 21.4784Z" fill="#453CB6"/>
<path d="M21.3487 24.0831C20.6181 23.1954 19.9021 22.1749 19.2175 21.0043C18.5958 19.9381 18.0709 18.922 17.6016 17.9429C15.9276 20.023 14.198 21.9356 12.3668 23.2498C11.8903 23.5936 11.4089 23.8938 10.9178 24.1484C10.9033 24.1549 10.8912 24.1615 10.8767 24.168C10.8767 24.1702 10.8743 24.1702 10.8719 24.1702L10.8332 24.181C10.6445 24.2267 10.4534 24.3138 10.2574 24.4226C9.92602 24.5314 9.56316 24.6162 9.1737 24.6771C8.8181 24.7315 8.44073 24.7685 8.04885 24.7816C7.63035 24.799 7.19734 24.7903 6.75466 24.7555C5.19922 24.6423 3.5567 24.2202 2.21655 23.4695C2.22865 23.4957 2.24074 23.5196 2.25526 23.5457C2.34718 23.7263 2.4512 23.9134 2.56731 24.1071C4.16629 26.7573 8.02949 30.3322 12.8022 29.9754C16.4187 29.7055 19.1933 27.3774 21.6632 24.453C21.5567 24.3312 21.4527 24.2093 21.3487 24.0831Z" fill="#594DED"/>
<path d="M39.7261 11.8939C39.2737 9.32858 37.861 7.37031 35.6742 6.31502C33.3326 5.18793 30.3475 5.28149 27.8849 6.56307C26.5472 7.25934 25.2336 8.46259 23.9128 9.94435C23.9395 9.99439 23.9636 10.0466 23.9903 10.0967C24.0169 10.1489 24.0435 10.2011 24.0677 10.2533C24.4958 11.0997 24.9046 11.9505 25.3038 12.7817C25.9956 14.2199 26.673 15.6299 27.3842 16.9158C28.6783 15.2926 30.004 13.8718 31.482 12.8709C31.5134 12.8491 31.5449 12.8295 31.5763 12.81C31.6828 12.736 31.7916 12.6685 31.8981 12.6054C32.0916 12.4857 32.2875 12.377 32.4835 12.2769C34.4598 11.2629 36.5257 11.1454 38.7415 11.9244C39.0318 12.0266 39.3293 12.1441 39.6245 12.2812C39.639 12.2856 39.6511 12.2921 39.6656 12.2986C39.7091 12.316 39.7527 12.3378 39.7962 12.3574C39.7769 12.2007 39.7527 12.0462 39.7261 11.8939Z" fill="#594DED"/>
<path d="M37.8996 22.8058L37.8948 22.808C37.411 23.0582 36.8788 23.254 36.3176 23.3824H36.3152C35.2484 23.6305 34.0751 23.637 32.9164 23.315C32.6673 23.2453 32.4181 23.1627 32.1714 23.0604H32.1665C31.8786 22.9429 31.5932 22.8036 31.3126 22.6404H31.3102L31.3053 22.6383H31.3029C31.2666 22.6165 31.2352 22.5969 31.1989 22.573C30.9691 22.4337 30.7465 22.2814 30.5312 22.1117C30.4127 22.0247 30.299 21.9311 30.1853 21.8332C30.0958 21.7592 30.0087 21.6809 29.9241 21.6004C29.837 21.5221 29.7523 21.4394 29.6701 21.3567C28.7968 20.4885 28.0203 19.4006 27.2897 18.1778C27.2244 18.0712 27.1615 17.9624 27.0986 17.8536C27.0357 17.7448 26.9728 17.6338 26.9099 17.5228C26.1286 16.1368 25.3932 14.6072 24.6409 13.0428C24.2369 12.2029 23.8305 11.3565 23.412 10.5231C23.3564 10.4121 23.3008 10.3012 23.2427 10.1902C23.1871 10.0792 23.1314 9.96609 23.0709 9.85512C20.8696 5.56433 18.2885 1.68478 14.0238 0.390148C9.02845 -1.12642 5.42651 2.1069 3.56386 4.45465C3.46709 4.57867 3.37275 4.69617 3.28809 4.81366C3.41388 4.73751 3.54934 4.66135 3.68965 4.58955C3.709 4.57867 3.72835 4.56779 3.75012 4.55909C3.76947 4.54821 3.78883 4.53733 3.8106 4.52863C3.82753 4.51992 3.84204 4.51339 3.85898 4.50469H3.8614C4.67177 4.09998 5.67809 3.76272 6.80536 3.76272C7.78023 3.76272 8.84703 4.01295 9.94527 4.68311C10.0178 4.72663 10.0928 4.7745 10.1654 4.82237C10.2452 4.87459 10.3251 4.92681 10.4025 4.98338C10.4436 5.00949 10.4847 5.03995 10.5258 5.07259C10.596 5.12481 10.6686 5.17921 10.7387 5.23578C10.7823 5.26842 10.8234 5.30106 10.8645 5.33587C10.9056 5.37068 10.9467 5.4055 10.9879 5.44031L11.0096 5.45989C11.0508 5.49471 11.0919 5.52952 11.133 5.56869C11.1814 5.60785 11.2298 5.65354 11.2782 5.69706C11.2782 5.69706 11.2798 5.69851 11.283 5.70141H11.2854C11.6047 5.99733 11.9023 6.29325 12.1829 6.59351C12.1853 6.59569 12.1877 6.60004 12.1877 6.60004C12.2046 6.61527 12.2192 6.63268 12.2337 6.65009C12.3135 6.73277 12.3885 6.81545 12.4635 6.90031C14.5487 9.22847 15.6348 11.7307 16.8637 14.5615C17.1564 15.2338 17.4515 15.9149 17.7684 16.609C17.8216 16.7286 17.8749 16.8483 17.9305 16.968C17.9837 17.0855 18.0394 17.2008 18.0926 17.3205C18.603 18.4019 19.1715 19.5203 19.8609 20.6996C20.5576 21.8898 21.2663 22.8972 21.9679 23.748C22.0138 23.8045 22.0622 23.8611 22.1082 23.9155C22.1856 24.0069 22.263 24.0961 22.3404 24.1831C22.4178 24.2723 22.4952 24.3616 22.575 24.4464C25.952 28.141 29.0581 28.3717 29.7717 28.3717C34.4743 28.3717 36.886 25.2993 38.0883 23.0865C38.1899 22.8972 38.2842 22.7123 38.3713 22.5382C38.2214 22.6339 38.0617 22.7231 37.8996 22.8058Z" fill="#594DED"/>
</svg>
